<svg width="99" height="40" viewBox="0 0 99 40" fill="none" xmlns="http://www.w3.org/2000/svg">
<circle cx="20" cy="20" r="20" fill="#D5A6FD"/>
<g clip-path="url(#clip0_1_398)">
<path d="M13.2487 23.9485C13.3694 23.833 13.5353 23.7656 13.7113 23.7656H29.6731C29.9648 23.7656 30.1107 24.1025 29.9045 24.2998L26.7513 27.3171C26.6306 27.4326 26.4647 27.5 26.2887 27.5H10.3269C10.0352 27.5 9.88937 27.1631 10.0956 26.9658L13.2487 23.9485Z" fill="white"/>
<path d="M13.2487 12.6829C13.3744 12.5674 13.5404 12.5 13.7113 12.5H29.6731C29.9648 12.5 30.1107 12.8369 29.9045 13.0342L26.7513 16.0515C26.6306 16.167 26.4647 16.2344 26.2887 16.2344H10.3269C10.0352 16.2344 9.88937 15.8975 10.0956 15.7002L13.2487 12.6829Z" fill="white"/>
<path d="M26.7513 18.2796C26.6306 18.1641 26.4647 18.0967 26.2887 18.0967H10.3269C10.0352 18.0967 9.88937 18.4336 10.0956 18.6309L13.2487 21.6482C13.3694 21.7637 13.5353 21.8311 13.7113 21.8311H29.6731C29.9648 21.8311 30.1107 21.4942 29.9045 21.2969L26.7513 18.2796Z" fill="white"/>
</g>
<path d="M60.016 18.42C57.808 17.868 55.984 17.46 55.984 15.54C55.984 14.052 57.112 13.26 59.248 13.26C61.768 13.26 62.944 14.388 63.208 16.452H65.968C65.704 12.996 63.16 11.004 59.248 11.004C55.552 11.004 53.248 12.708 53.248 15.684C53.248 18.948 56.2 19.836 58.888 20.532C62.008 21.324 63.688 21.636 63.688 23.82C63.688 25.38 62.824 26.58 60.088 26.58C56.872 26.58 55.504 25.02 55.312 22.716H52.576C52.744 26.58 55.816 28.836 60.16 28.836C64.432 28.836 66.448 26.628 66.448 23.676C66.448 20.052 63.328 19.26 60.016 18.42ZM76.3611 28.836C81.4971 28.836 84.7851 25.068 84.7851 19.908C84.7851 14.748 81.4971 11.004 76.3611 11.004C71.2491 11.004 67.9611 14.748 67.9611 19.908C67.9611 25.068 71.2491 28.836 76.3611 28.836ZM76.3611 26.556C72.3291 26.556 70.6971 23.436 70.6971 19.908C70.6971 16.38 72.3291 13.284 76.3611 13.284C80.4171 13.284 82.0491 16.38 82.0491 19.908C82.0491 23.436 80.4171 26.556 76.3611 26.556ZM87.1454 11.34V28.5H98.4734V26.22H89.7854V11.34H87.1454Z" fill="#111111"/>
<defs>
<clipPath id="clip0_1_398">
<rect width="20" height="15" fill="white" transform="translate(10 12.5)"/>
</clipPath>
</defs>
</svg>
