<svg width="86" height="25" viewBox="0 0 86 25" fill="none" xmlns="http://www.w3.org/2000/svg">
<circle cx="12" cy="12.5" r="12" fill="#AF52DE"/>
<g clip-path="url(#clip0_1_410)">
<path d="M7.94921 14.8691C8.02162 14.7998 8.1212 14.7594 8.2268 14.7594H17.8039C17.9789 14.7594 18.0664 14.9615 17.9427 15.0799L16.0508 16.8903C15.9784 16.9596 15.8788 17 15.7732 17H6.19613C6.02112 17 5.93362 16.7979 6.05733 16.6795L7.94921 14.8691Z" fill="white"/>
<path d="M7.94921 8.10972C8.02464 8.04042 8.12421 8 8.2268 8H17.8039C17.9789 8 18.0664 8.20212 17.9427 8.3205L16.0508 10.1309C15.9784 10.2002 15.8788 10.2406 15.7732 10.2406H6.19613C6.02112 10.2406 5.93362 10.0385 6.05733 9.92012L7.94921 8.10972Z" fill="white"/>
<path d="M16.0508 11.4678C15.9784 11.3985 15.8788 11.358 15.7732 11.358H6.19613C6.02112 11.358 5.93362 11.5601 6.05733 11.6785L7.94921 13.4889C8.02162 13.5582 8.1212 13.5986 8.2268 13.5986H17.8039C17.9789 13.5986 18.0664 13.3965 17.9427 13.2781L16.0508 11.4678Z" fill="white"/>
</g>
<path d="M41.344 11.78C39.872 11.412 38.656 11.14 38.656 9.86C38.656 8.868 39.408 8.34 40.832 8.34C42.512 8.34 43.296 9.092 43.472 10.468H45.312C45.136 8.164 43.44 6.836 40.832 6.836C38.368 6.836 36.832 7.972 36.832 9.956C36.832 12.132 38.8 12.724 40.592 13.188C42.672 13.716 43.792 13.924 43.792 15.38C43.792 16.42 43.216 17.22 41.392 17.22C39.248 17.22 38.336 16.18 38.208 14.644H36.384C36.496 17.22 38.544 18.724 41.44 18.724C44.288 18.724 45.632 17.252 45.632 15.284C45.632 12.868 43.552 12.34 41.344 11.78ZM51.0694 18.74C53.6134 18.74 55.1494 16.964 55.1494 14.404C55.1494 11.86 53.6134 10.084 51.0694 10.084C48.5254 10.084 46.9894 11.876 46.9894 14.42C46.9894 16.98 48.5254 18.74 51.0694 18.74ZM51.0694 17.444C49.3894 17.444 48.6214 16.116 48.6214 14.42C48.6214 12.708 49.3894 11.396 51.0694 11.396C52.7334 11.396 53.5174 12.708 53.5174 14.42C53.5174 16.116 52.7334 17.444 51.0694 17.444ZM56.8507 7.06V18.5H58.4187V7.06H56.8507ZM62.7735 18.724C64.1015 18.724 65.0295 18.196 65.5735 17.348H65.6055C65.6855 18.276 66.1175 18.58 66.8855 18.58C67.1415 18.58 67.4135 18.548 67.6855 18.484V17.524C67.5895 17.54 67.5415 17.54 67.4935 17.54C67.1895 17.54 67.1095 17.236 67.1095 16.644V12.9C67.1095 10.788 65.7655 10.084 64.0855 10.084C61.5895 10.084 60.5655 11.316 60.4855 12.884H62.0855C62.1655 11.796 62.5975 11.348 64.0215 11.348C65.2215 11.348 65.5735 11.844 65.5735 12.436C65.5735 13.236 64.7895 13.396 63.5095 13.636C61.4775 14.036 60.1015 14.564 60.1015 16.388C60.1015 17.78 61.1415 18.724 62.7735 18.724ZM63.1255 17.46C62.1495 17.46 61.7495 17.044 61.7495 16.276C61.7495 15.428 62.3415 15.044 63.7815 14.74C64.6135 14.564 65.3175 14.388 65.5735 14.148V15.316C65.5735 16.74 64.5335 17.46 63.1255 17.46ZM69.3539 18.5H70.9219V13.492C70.9219 12.26 71.7859 11.444 73.1299 11.444C74.2979 11.444 74.7779 12.18 74.7779 13.268V18.5H76.3619V12.836C76.3619 10.964 75.1459 10.1 73.6419 10.1C72.2339 10.1 71.3859 10.74 70.9539 11.364H70.9219V10.34H69.3539V18.5ZM80.6516 18.724C81.9796 18.724 82.9076 18.196 83.4516 17.348H83.4836C83.5636 18.276 83.9956 18.58 84.7636 18.58C85.0196 18.58 85.2916 18.548 85.5636 18.484V17.524C85.4676 17.54 85.4196 17.54 85.3716 17.54C85.0676 17.54 84.9876 17.236 84.9876 16.644V12.9C84.9876 10.788 83.6436 10.084 81.9636 10.084C79.4676 10.084 78.4436 11.316 78.3636 12.884H79.9636C80.0436 11.796 80.4756 11.348 81.8996 11.348C83.0996 11.348 83.4516 11.844 83.4516 12.436C83.4516 13.236 82.6676 13.396 81.3876 13.636C79.3556 14.036 77.9796 14.564 77.9796 16.388C77.9796 17.78 79.0196 18.724 80.6516 18.724ZM81.0036 17.46C80.0276 17.46 79.6276 17.044 79.6276 16.276C79.6276 15.428 80.2196 15.044 81.6596 14.74C82.4916 14.564 83.1956 14.388 83.4516 14.148V15.316C83.4516 16.74 82.4116 17.46 81.0036 17.46Z" fill="#141414"/>
<defs>
<clipPath id="clip0_1_410">
<rect width="12" height="9" fill="white" transform="translate(6 8)"/>
</clipPath>
</defs>
</svg>
